<svg width="301" height="301" viewBox="0 0 301 301" fill="none" xmlns="http://www.w3.org/2000/svg">
<circle cx="150.5" cy="150.5" r="150.5" fill="#54C5EB" fill-opacity="0.08"/>
<path d="M116.021 112.18C115.088 111.697 114.218 111.101 113.431 110.406L77.6843 79.1906C72.3492 74.5083 69.9147 67.704 74.5959 62.4218C79.277 57.1396 86.7747 57.9071 92.0774 62.5702L130.407 91.2061C132.723 93.2824 134.203 96.125 134.574 99.2063C134.944 102.288 134.18 105.398 132.422 107.96C130.665 110.523 128.033 112.363 125.017 113.139C122.001 113.915 118.804 113.574 116.021 112.18Z" fill="#F7CBA2"/>
<path d="M130.433 91.1803L109.682 75.6498C111.203 82.0994 110.692 88.6586 106.445 93.9536C104.66 96.0559 102.297 97.5917 99.6462 98.3716L113.418 110.406C115.977 112.654 119.328 113.797 122.734 113.583C124.42 113.478 126.068 113.042 127.586 112.302C129.103 111.561 130.459 110.53 131.576 109.268C132.693 108.006 133.55 106.536 134.097 104.944C134.644 103.352 134.871 101.668 134.765 99.9884C134.659 98.3088 134.222 96.6665 133.479 95.1552C132.735 93.6439 131.701 92.2932 130.433 91.1803Z" fill="#F2AE89"/>
<path d="M214.474 220.042L212.94 217.333L226.096 191.567C241.389 167.633 242.361 156.347 237.103 144.402C237.103 144.292 212.001 120.036 207.359 127.427L195.432 135.166L131.728 92.4057L75.5801 166.982L104.166 212.774L106.956 217.288C114.235 229.065 125.751 237.63 139.155 241.235L140.812 245.853" fill="#F7CBA2"/>
<path d="M210.939 156.843L223.578 132.799C216.844 127.788 209.664 123.802 207.391 127.427L195.465 135.166L131.761 92.4057L75.5801 166.982L104.166 212.774L106.956 217.288C109.475 221.364 109.799 220.087 113.237 223.319C127.966 215.386 164.794 214.741 180.936 224.415C182.988 180.1 206.86 160.287 210.939 156.843Z" fill="#F2AE89"/>
<path d="M163.914 237.611L162.483 233.844C143.214 236.243 118.216 228.504 108.808 220.042C116.133 230.411 126.868 237.899 139.155 241.21L140.812 245.827" fill="#F2AE89"/>
<path d="M154.04 100.229H128.025C127.514 100.228 127.019 100.056 126.62 99.7389C122.84 96.7578 120.085 92.6785 118.739 88.0673C117.392 83.456 117.519 78.5415 119.104 74.0058C120.688 69.47 123.651 65.5381 127.58 62.7556C131.51 59.9731 136.211 58.4782 141.032 58.4782C145.853 58.4782 150.555 59.9731 154.485 62.7556C158.414 65.5381 161.377 69.47 162.961 74.0058C164.545 78.5415 164.673 83.456 163.326 88.0673C161.979 92.6785 159.225 96.7578 155.445 99.7389C155.046 100.056 154.55 100.228 154.04 100.229ZM128.841 95.7144H153.224C156.115 93.2352 158.175 89.9342 159.127 86.2548C160.079 82.5754 159.878 78.6939 158.55 75.1317C157.223 71.5695 154.833 68.4972 151.701 66.3277C148.57 64.1582 144.847 62.9953 141.032 62.9953C137.218 62.9953 133.495 64.1582 130.363 66.3277C127.232 68.4972 124.842 71.5695 123.514 75.1317C122.187 78.6939 121.986 82.5754 122.938 86.2548C123.89 89.9342 125.95 93.2352 128.841 95.7144Z" fill="#95ABA4"/>
<path d="M145.422 84.3632H136.642V103.873H145.422V84.3632Z" fill="#4C6168"/>
<path d="M149.184 74.8372H132.881V89.684H149.184V74.8372Z" fill="#95ABA4"/>
<path d="M183.658 102.637L176.298 97.8688L168.017 110.553L175.377 115.321L183.658 102.637Z" fill="#4C6168"/>
<path d="M189.223 101.719L175.528 92.7874L169.172 102.458L182.866 111.39L189.223 101.719Z" fill="#95ABA4"/>
<path d="M182.185 200.9C204.911 178.262 204.911 141.559 182.185 118.921C159.458 96.2824 122.612 96.2824 99.8857 118.921C77.1595 141.559 77.1595 178.262 99.8857 200.9C122.612 223.538 159.458 223.538 182.185 200.9Z" fill="#95ABA4"/>
<path d="M141.032 211.052C169.385 211.052 192.37 188.156 192.37 159.913C192.37 131.67 169.385 108.775 141.032 108.775C112.679 108.775 89.6947 131.67 89.6947 159.913C89.6947 188.156 112.679 211.052 141.032 211.052Z" fill="#EEF5F3"/>
<path d="M142.107 102.377H140.812V115.166H142.107V102.377Z" fill="#95ABA4"/>
<path d="M142.107 204.647H140.812V217.437H142.107V204.647Z" fill="#95ABA4"/>
<path d="M96.1176 159.694H83.2783V160.984H96.1176V159.694Z" fill="#95ABA4"/>
<path d="M198.786 159.694H185.947V160.984H198.786V159.694Z" fill="#95ABA4"/>
<path d="M136.065 102.58L134.777 102.715L136.119 115.434L137.407 115.3L136.065 102.58Z" fill="#95ABA4"/>
<path d="M146.795 204.292L145.507 204.427L146.849 217.146L148.137 217.011L146.795 204.292Z" fill="#95ABA4"/>
<path d="M96.3407 164.37L83.5718 165.707L83.7071 166.99L96.476 165.653L96.3407 164.37Z" fill="#95ABA4"/>
<path d="M198.448 153.669L185.679 155.005L185.814 156.288L198.583 154.951L198.448 153.669Z" fill="#95ABA4"/>
<path d="M130.073 103.414L128.807 103.682L131.476 116.192L132.743 115.924L130.073 103.414Z" fill="#95ABA4"/>
<path d="M151.425 203.444L150.158 203.712L152.827 216.222L154.094 215.954L151.425 203.444Z" fill="#95ABA4"/>
<path d="M97.0583 168.995L84.5001 171.656L84.7696 172.918L97.3278 170.257L97.0583 168.995Z" fill="#95ABA4"/>
<path d="M197.939 147.642L185.356 150.328L185.628 151.592L198.211 148.906L197.939 147.642Z" fill="#95ABA4"/>
<path d="M124.207 104.863L122.975 105.261L126.943 117.425L128.174 117.026L124.207 104.863Z" fill="#95ABA4"/>
<path d="M155.935 202.126L154.704 202.525L158.671 214.688L159.903 214.29L155.935 202.126Z" fill="#95ABA4"/>
<path d="M98.2431 173.526L86.0322 177.478L86.4324 178.705L98.6432 174.752L98.2431 173.526Z" fill="#95ABA4"/>
<path d="M195.895 141.913L183.683 145.861L184.083 147.087L196.295 143.14L195.895 141.913Z" fill="#95ABA4"/>
<path d="M118.52 106.919L117.337 107.443L122.559 119.127L123.742 118.602L118.52 106.919Z" fill="#95ABA4"/>
<path d="M160.277 200.348L159.094 200.872L164.317 212.556L165.5 212.032L160.277 200.348Z" fill="#95ABA4"/>
<path d="M99.9126 177.906L88.1833 183.108L88.71 184.287L100.439 179.085L99.9126 177.906Z" fill="#95ABA4"/>
<path d="M193.699 136.326L181.967 141.522L182.493 142.7L194.225 137.505L193.699 136.326Z" fill="#95ABA4"/>
<path d="M113.085 109.552L111.964 110.197L118.384 121.273L119.505 120.628L113.085 109.552Z" fill="#95ABA4"/>
<path d="M164.416 198.119L163.294 198.764L169.714 209.84L170.835 209.195L164.416 198.119Z" fill="#95ABA4"/>
<path d="M102.015 182.103L90.8944 188.495L91.5417 189.613L102.662 183.22L102.015 182.103Z" fill="#95ABA4"/>
<path d="M190.938 130.965L179.817 137.358L180.465 138.475L191.585 132.082L190.938 130.965Z" fill="#95ABA4"/>
<path d="M107.957 112.736L106.909 113.495L114.456 123.842L115.504 123.083L107.957 112.736Z" fill="#95ABA4"/>
<path d="M168.3 195.473L167.253 196.231L174.799 206.578L175.847 205.82L168.3 195.473Z" fill="#95ABA4"/>
<path d="M104.567 186.028L94.1826 193.549L94.9441 194.593L105.329 187.072L104.567 186.028Z" fill="#95ABA4"/>
<path d="M187.627 125.929L177.24 133.446L178.001 134.49L188.388 126.972L187.627 125.929Z" fill="#95ABA4"/>
<path d="M103.19 116.442L102.227 117.305L110.819 126.809L111.781 125.946L103.19 116.442Z" fill="#95ABA4"/>
<path d="M171.885 192.441L170.922 193.304L179.513 202.809L180.476 201.946L171.885 192.441Z" fill="#95ABA4"/>
<path d="M107.5 189.693L97.9568 198.249L98.8231 199.208L108.366 190.652L107.5 189.693Z" fill="#95ABA4"/>
<path d="M183.807 121.258L174.264 129.814L175.131 130.772L184.674 122.216L183.807 121.258Z" fill="#95ABA4"/>
<path d="M98.8303 120.618L97.9639 121.576L107.505 130.134L108.372 129.176L98.8303 120.618Z" fill="#95ABA4"/>
<path d="M175.126 189.056L174.26 190.014L183.801 198.572L184.668 197.613L175.126 189.056Z" fill="#95ABA4"/>
<path d="M110.814 193.009L102.224 202.515L103.187 203.378L111.776 193.872L110.814 193.009Z" fill="#95ABA4"/>
<path d="M179.517 117.006L170.928 126.512L171.89 127.375L180.48 117.869L179.517 117.006Z" fill="#95ABA4"/>
<path d="M94.9333 125.232L94.1721 126.276L104.559 133.793L105.32 132.75L94.9333 125.232Z" fill="#95ABA4"/>
<path d="M178 185.341L177.239 186.385L187.626 193.902L188.387 192.858L178 185.341Z" fill="#95ABA4"/>
<path d="M114.457 195.978L106.911 206.325L107.958 207.083L115.505 196.736L114.457 195.978Z" fill="#95ABA4"/>
<path d="M174.802 113.239L167.251 123.583L168.299 124.342L175.849 113.998L174.802 113.239Z" fill="#95ABA4"/>
<path d="M91.5533 130.212L90.9059 131.329L102.025 137.724L102.672 136.607L91.5533 130.212Z" fill="#95ABA4"/>
<path d="M180.461 181.345L179.814 182.463L190.933 188.857L191.581 187.74L180.461 181.345Z" fill="#95ABA4"/>
<path d="M118.383 198.563L111.964 209.639L113.085 210.284L119.505 199.208L118.383 198.563Z" fill="#95ABA4"/>
<path d="M169.711 109.97L163.293 121.047L164.415 121.692L170.832 110.615L169.711 109.97Z" fill="#95ABA4"/>
<path d="M88.7069 135.533L88.1802 136.712L99.9094 141.914L100.436 140.735L88.7069 135.533Z" fill="#95ABA4"/>
<path d="M182.502 177.129L181.975 178.307L193.704 183.509L194.231 182.331L182.502 177.129Z" fill="#95ABA4"/>
<path d="M122.564 200.705L117.336 212.386L118.518 212.911L123.747 201.23L122.564 200.705Z" fill="#95ABA4"/>
<path d="M164.321 107.266L159.097 118.949L160.28 119.474L165.504 107.791L164.321 107.266Z" fill="#95ABA4"/>
<path d="M86.4338 141.112L86.0337 142.339L98.2445 146.291L98.6447 145.064L86.4338 141.112Z" fill="#95ABA4"/>
<path d="M184.081 172.717L183.681 173.944L195.892 177.896L196.292 176.669L184.081 172.717Z" fill="#95ABA4"/>
<path d="M126.938 202.377L122.977 214.542L124.209 214.94L128.17 202.775L126.938 202.377Z" fill="#95ABA4"/>
<path d="M158.66 105.122L154.692 117.285L155.924 117.684L159.891 105.521L158.66 105.122Z" fill="#95ABA4"/>
<path d="M84.7648 146.908L84.4956 148.17L97.0543 150.829L97.3235 149.567L84.7648 146.908Z" fill="#95ABA4"/>
<path d="M185.686 168.145L185.414 169.409L197.996 172.095L198.268 170.831L185.686 168.145Z" fill="#95ABA4"/>
<path d="M131.487 203.642L128.815 216.152L130.082 216.42L132.754 203.911L131.487 203.642Z" fill="#95ABA4"/>
<path d="M152.822 103.593L150.153 116.103L151.419 116.371L154.089 103.861L152.822 103.593Z" fill="#95ABA4"/>
<path d="M83.7059 152.833L83.5706 154.115L96.3395 155.452L96.4748 154.169L83.7059 152.833Z" fill="#95ABA4"/>
<path d="M185.813 163.524L185.678 164.807L198.447 166.144L198.582 164.861L185.813 163.524Z" fill="#95ABA4"/>
<path d="M136.124 204.394L134.781 217.113L136.069 217.248L137.411 204.529L136.124 204.394Z" fill="#95ABA4"/>
<path d="M146.85 102.669L145.508 115.388L146.796 115.523L148.138 102.804L146.85 102.669Z" fill="#95ABA4"/>
<path d="M142.78 102.564H140.132V123.131H142.78V102.564Z" fill="#95ABA4"/>
<path d="M142.78 196.688H140.132V217.256H142.78V196.688Z" fill="#95ABA4"/>
<path d="M104.114 159.017H83.4662V161.654H104.114V159.017Z" fill="#95ABA4"/>
<path d="M198.598 159.017H177.951V161.654H198.598V159.017Z" fill="#95ABA4"/>
<path d="M113.992 109.309L111.699 110.628L122.023 128.44L124.316 127.121L113.992 109.309Z" fill="#95ABA4"/>
<path d="M161.234 190.82L158.94 192.139L169.264 209.951L171.558 208.632L161.234 190.82Z" fill="#95ABA4"/>
<path d="M108.836 177.453L90.9567 187.74L92.2811 190.025L110.161 179.738L108.836 177.453Z" fill="#95ABA4"/>
<path d="M190.663 130.396L172.781 140.68L174.105 142.964L191.987 132.68L190.663 130.396Z" fill="#95ABA4"/>
<path d="M92.4389 129.488L91.1149 131.772L108.996 142.056L110.32 139.772L92.4389 129.488Z" fill="#95ABA4"/>
<path d="M174.262 176.551L172.938 178.836L190.82 189.12L192.144 186.835L174.262 176.551Z" fill="#95ABA4"/>
<path d="M122.183 191.073L111.859 208.885L114.152 210.204L124.476 192.392L122.183 191.073Z" fill="#95ABA4"/>
<path d="M169.429 109.575L159.102 127.385L161.395 128.705L171.722 110.894L169.429 109.575Z" fill="#95ABA4"/>
<path d="M150.57 199.069C172.274 193.818 185.596 172.036 180.325 150.416C175.054 128.796 153.187 115.526 131.483 120.777C109.779 126.027 96.4571 147.809 101.728 169.429C106.999 191.049 128.866 204.319 150.57 199.069Z" fill="#EEF5F3"/>
<path d="M152.165 149.681C158.312 143.558 158.312 133.631 152.165 127.508C146.018 121.385 136.052 121.385 129.905 127.508C123.759 133.631 123.759 143.558 129.905 149.681C136.052 155.804 146.018 155.804 152.165 149.681Z" fill="white"/>
<path d="M141.032 155.315C137.711 155.316 134.464 154.336 131.703 152.499C128.941 150.662 126.788 148.05 125.516 144.994C124.245 141.938 123.912 138.575 124.559 135.33C125.207 132.085 126.806 129.105 129.154 126.766C131.503 124.426 134.495 122.833 137.752 122.188C141.009 121.543 144.386 121.875 147.454 123.142C150.522 124.408 153.144 126.553 154.988 129.304C156.832 132.055 157.816 135.289 157.815 138.597C157.801 143.027 156.028 147.271 152.884 150.403C149.74 153.535 145.479 155.301 141.032 155.315ZM141.032 123.963C138.127 123.963 135.286 124.822 132.87 126.43C130.455 128.038 128.572 130.323 127.46 132.997C126.348 135.671 126.057 138.614 126.624 141.452C127.19 144.291 128.59 146.899 130.644 148.945C132.699 150.992 135.316 152.386 138.166 152.95C141.016 153.515 143.97 153.225 146.654 152.117C149.339 151.01 151.633 149.134 153.247 146.728C154.862 144.321 155.723 141.492 155.723 138.597C155.718 134.718 154.169 130.999 151.415 128.255C148.661 125.512 144.927 123.968 141.032 123.963Z" fill="#C5CCCF"/>
<path d="M142.081 122.919H139.983V127.975H142.081V122.919Z" fill="#C5CCCF"/>
<path d="M142.081 149.084H139.983V154.141H142.081V149.084Z" fill="#C5CCCF"/>
<path d="M134.075 124.494L132.258 125.538L134.796 129.917L136.613 128.873L134.075 124.494Z" fill="#C5CCCF"/>
<path d="M147.207 147.152L145.391 148.197L147.929 152.576L149.745 151.531L147.207 147.152Z" fill="#C5CCCF"/>
<path d="M127.929 129.849L126.88 131.659L131.276 134.187L132.325 132.378L127.929 129.849Z" fill="#C5CCCF"/>
<path d="M150.679 142.936L149.63 144.746L154.026 147.274L155.075 145.465L150.679 142.936Z" fill="#C5CCCF"/>
<path d="M130.368 137.553H125.292V139.642H130.368V137.553Z" fill="#C5CCCF"/>
<path d="M156.636 137.553H151.56V139.642H156.636V137.553Z" fill="#C5CCCF"/>
<path d="M131.283 142.991L126.887 145.52L127.936 147.329L132.332 144.8L131.283 142.991Z" fill="#C5CCCF"/>
<path d="M154.027 129.916L149.631 132.445L150.68 134.255L155.076 131.726L154.027 129.916Z" fill="#C5CCCF"/>
<path d="M134.797 147.274L132.258 151.653L134.074 152.698L136.613 148.319L134.797 147.274Z" fill="#C5CCCF"/>
<path d="M147.925 124.608L145.388 128.988L147.206 130.032L149.742 125.652L147.925 124.608Z" fill="#C5CCCF"/>
<path d="M141.032 212.013C130.686 212.013 120.573 208.956 111.97 203.231C103.368 197.505 96.6636 189.367 92.7047 179.845C88.7457 170.324 87.7102 159.847 89.7291 149.739C91.748 139.631 96.7305 130.347 104.047 123.06C111.363 115.773 120.684 110.811 130.831 108.801C140.979 106.791 151.496 107.824 161.054 111.769C170.612 115.714 178.782 122.393 184.528 130.963C190.275 139.533 193.342 149.607 193.341 159.913C193.324 173.727 187.807 186.969 178.001 196.736C168.195 206.503 154.9 211.997 141.032 212.013ZM141.032 109.742C131.071 109.742 121.333 112.685 113.05 118.197C104.768 123.71 98.3119 131.546 94.4998 140.714C90.6877 149.881 89.6903 159.969 91.6337 169.701C93.5771 179.433 98.374 188.373 105.418 195.389C112.462 202.406 121.436 207.184 131.206 209.12C140.976 211.056 151.103 210.062 160.307 206.265C169.51 202.468 177.376 196.037 182.91 187.787C188.445 179.536 191.399 169.836 191.399 159.913C191.383 146.612 186.072 133.859 176.63 124.454C167.187 115.048 154.385 109.757 141.032 109.742Z" fill="#4C6168"/>
<path d="M174.26 148.046L140.294 157.772L129.825 163.454L130.064 164.15L141.816 162.125L174.506 148.743L174.26 148.046Z" fill="#4C6168"/>
<path d="M137.096 159.771C137.062 160.571 137.267 161.364 137.685 162.048C138.104 162.731 138.717 163.276 139.446 163.613C140.176 163.949 140.99 164.062 141.784 163.937C142.578 163.813 143.317 163.456 143.907 162.912C144.498 162.368 144.913 161.662 145.1 160.883C145.287 160.104 145.238 159.288 144.958 158.537C144.678 157.786 144.181 157.134 143.53 156.665C142.878 156.196 142.101 155.93 141.298 155.901C140.226 155.863 139.183 156.248 138.396 156.973C137.609 157.698 137.141 158.704 137.096 159.771Z" fill="#4C6168"/>
<path d="M141.136 124.279C140.903 124.279 140.679 124.369 140.511 124.53C140.343 124.692 140.244 124.911 140.236 125.144L139.783 138.391L140.204 142.261C140.229 142.496 140.341 142.714 140.518 142.872C140.695 143.031 140.924 143.118 141.162 143.118C141.405 143.118 141.638 143.025 141.816 142.86C141.994 142.695 142.102 142.47 142.12 142.228L142.528 138.359L142.055 125.144C142.047 124.908 141.946 124.685 141.774 124.524C141.602 124.362 141.372 124.274 141.136 124.279Z" fill="#4C6168"/>
<path d="M141.874 140.178C141.516 140.311 141.127 140.336 140.755 140.25C140.383 140.164 140.045 139.97 139.783 139.694C139.521 139.417 139.346 139.07 139.281 138.695C139.216 138.321 139.263 137.935 139.416 137.587C139.57 137.239 139.823 136.943 140.144 136.738C140.465 136.532 140.84 136.425 141.222 136.43C141.603 136.435 141.975 136.553 142.29 136.767C142.606 136.982 142.85 137.284 142.994 137.636C143.092 137.876 143.14 138.133 143.137 138.392C143.133 138.65 143.078 138.906 142.973 139.143C142.869 139.38 142.718 139.593 142.529 139.771C142.34 139.949 142.117 140.087 141.874 140.178Z" fill="#4C6168"/>
<path d="M146.05 74.8372H143.46V87.4976H146.05V74.8372Z" fill="#C5DDDB"/>
<path d="M143.661 92.4057H141.395V102.119H143.661V92.4057Z" fill="#95ABA4"/>
<path d="M183.475 100.242L179.697 105.99L181.872 107.409L185.651 101.661L183.475 100.242Z" fill="#C5DDDB"/>
<path d="M175.323 107.26L172.441 111.655L174.338 112.89L177.22 108.494L175.323 107.26Z" fill="#95ABA4"/>
<path d="M156.241 67.5105C156.089 67.5106 155.939 67.4804 155.799 67.4217C155.659 67.363 155.532 67.277 155.425 67.1687C153.565 65.2555 151.331 63.743 148.86 62.725C148.717 62.6726 148.585 62.5918 148.474 62.4876C148.363 62.3833 148.274 62.2577 148.212 62.1183C148.151 61.9789 148.119 61.8286 148.117 61.6764C148.116 61.5242 148.145 61.3733 148.204 61.2327C148.262 61.0921 148.349 60.9648 148.458 60.8584C148.567 60.752 148.697 60.6686 148.839 60.6134C148.982 60.5582 149.134 60.5323 149.286 60.5371C149.439 60.542 149.589 60.5776 149.728 60.6417C152.485 61.7775 154.979 63.4631 157.057 65.595C157.269 65.8076 157.388 66.0951 157.388 66.3947C157.388 66.6944 157.269 66.9818 157.057 67.1945C156.949 67.2987 156.821 67.3804 156.681 67.4346C156.541 67.4889 156.392 67.5147 156.241 67.5105Z" fill="#C5DDDB"/>
<path d="M128.666 98.5586C128.029 98.5582 127.405 98.3757 126.869 98.0327C126.333 97.6897 125.907 97.2007 125.642 96.6237C125.575 96.4872 125.536 96.3384 125.527 96.1864C125.519 96.0343 125.542 95.8822 125.594 95.7392C125.646 95.5961 125.727 95.4651 125.832 95.354C125.936 95.2429 126.062 95.1539 126.202 95.0925C126.342 95.0311 126.493 94.9986 126.645 94.9968C126.798 94.995 126.95 95.024 127.091 95.0821C127.232 95.1402 127.36 95.2262 127.467 95.3348C127.574 95.4435 127.658 95.5726 127.714 95.7144C127.806 95.9039 127.952 96.0621 128.134 96.1688C128.316 96.2756 128.526 96.3262 128.737 96.3142C129.027 96.3059 129.31 96.4084 129.527 96.6007C129.744 96.7929 129.879 97.0605 129.905 97.3487C129.93 97.6369 129.844 97.9239 129.665 98.1512C129.485 98.3784 129.225 98.5288 128.938 98.5715L128.666 98.5586Z" fill="#C5DDDB"/>
<path d="M180.042 121.261C179.886 121.261 179.732 121.229 179.59 121.167C179.447 121.105 179.319 121.014 179.213 120.9C175.147 116.546 169.236 112.477 162.567 109.445C162.321 109.306 162.137 109.079 162.05 108.811C161.964 108.543 161.981 108.252 162.098 107.996C162.216 107.74 162.426 107.536 162.686 107.426C162.947 107.316 163.239 107.307 163.506 107.401C170.44 110.555 176.61 114.805 180.871 119.378C180.973 119.486 181.052 119.613 181.104 119.752C181.156 119.891 181.18 120.038 181.175 120.186C181.17 120.334 181.135 120.48 181.072 120.615C181.01 120.749 180.922 120.87 180.813 120.971C180.603 121.164 180.327 121.268 180.042 121.261Z" fill="#C5DDDB"/>
<path d="M84.2819 137.604C82.8845 137.11 81.5736 136.401 80.3971 135.502L72.7894 130.007C69.7886 127.709 67.8269 124.319 67.3357 120.581C66.8445 116.843 67.8642 113.063 70.1704 110.074C72.4766 107.085 75.8803 105.131 79.6329 104.642C83.3855 104.152 87.1795 105.168 90.1803 107.465L97.7945 112.96C100.528 115.009 102.431 117.969 103.154 121.3C103.877 124.631 103.372 128.11 101.733 131.101C100.093 134.092 97.4269 136.395 94.2227 137.589C91.0185 138.783 87.4898 138.788 84.2819 137.604Z" fill="#F7CBA2"/>
<path d="M82.754 132.586C84.6963 134.289 97.9176 119.268 95.9752 117.572L87.9401 112.677C85.9978 111.503 82.3202 113.122 79.4325 116.404C76.5448 119.681 75.4182 123.544 76.8426 125.292L82.754 132.586Z" fill="#FFDDBC"/>
<path d="M82.6569 132.902L82.3202 132.657C82.113 132.496 81.7828 132.251 81.4073 131.909C80.3465 130.952 79.4072 129.869 78.6102 128.684C78.0678 127.895 77.5873 127.065 77.1728 126.201C76.9289 125.726 76.7127 125.237 76.5254 124.737C76.3188 124.178 76.1713 123.599 76.0851 123.009C75.9121 121.728 76.0704 120.425 76.5448 119.223C76.7555 118.647 77.0065 118.087 77.2959 117.546C77.6079 116.979 77.9674 116.44 78.3706 115.934C79.1453 114.966 80.0394 114.099 81.0317 113.354C81.2648 113.173 81.5044 112.999 81.7439 112.831C81.9835 112.664 81.9965 112.67 82.1259 112.58C82.2554 112.49 82.4497 112.386 82.6115 112.315C83.2811 111.999 84.0219 111.861 84.7611 111.916C85.3643 111.953 85.9615 112.057 86.5417 112.225L87.2992 112.438C87.5388 112.509 87.8042 112.593 88.0438 112.677C88.9499 112.986 89.8327 113.358 90.6854 113.792C91.9566 114.422 93.1514 115.195 94.2465 116.095C94.6414 116.417 94.9263 116.695 95.127 116.882L95.4249 117.172C95.4249 117.172 94.894 116.927 93.9746 116.527C92.7255 115.99 91.4456 115.527 90.1416 115.14C89.3387 114.915 88.4646 114.708 87.5517 114.495C86.6406 114.295 85.713 114.178 84.7806 114.147C84.4239 114.177 84.0807 114.297 83.7835 114.495L83.5504 114.644L83.2461 114.87C83.0389 115.031 82.8317 115.192 82.631 115.36C81.8265 116.017 81.0911 116.754 80.4361 117.559C80.1253 117.938 79.846 118.341 79.6008 118.765C79.3496 119.213 79.1226 119.673 78.921 120.145C78.5438 120.977 78.3665 121.884 78.403 122.796C78.4299 123.259 78.497 123.718 78.6037 124.17C78.7073 124.621 78.8562 125.092 78.9922 125.531C79.2836 126.421 79.5879 127.259 79.9246 128.02C80.4756 129.254 81.1094 130.45 81.8216 131.6C82.0871 132.019 82.2943 132.354 82.4691 132.574L82.6569 132.902Z" fill="#F2AE89"/>
<path d="M91.4623 170.942C89.6862 170.654 87.9864 170.014 86.4639 169.059L65.745 156.25C62.7013 154.351 60.5394 151.326 59.735 147.839C58.9306 144.353 59.5495 140.691 61.4555 137.659C63.3616 134.627 66.3987 132.474 69.8987 131.672C73.3988 130.871 77.075 131.487 80.1187 133.386L100.838 146.195C103.486 147.85 105.479 150.367 106.477 153.318C107.475 156.27 107.417 159.475 106.313 162.389C105.209 165.303 103.127 167.747 100.42 169.306C97.7132 170.865 94.5483 171.443 91.4623 170.942Z" fill="#F7CBA2"/>
<path d="M90.7372 167.472C94.0134 169.407 103.738 153.115 100.449 151.174L87.9272 145.524C84.923 144.17 80.9864 145.86 78.8627 149.394C76.739 152.961 77.1275 157.211 79.7627 159.191L90.7372 167.472Z" fill="#FFDDBC"/>
<path d="M100.65 151.258C100.65 151.258 99.8988 151.045 98.6104 150.613C97.3219 150.181 95.4831 149.562 93.3076 148.749L89.8307 147.459C88.6263 147.007 87.3646 146.725 86.0819 146.621C84.8388 146.541 83.6038 146.869 82.5662 147.556C81.4564 148.313 80.5297 149.306 79.8533 150.465C79.1425 151.569 78.7196 152.832 78.6231 154.141V154.36C78.6231 154.173 78.6231 154.321 78.6231 154.283V154.56L78.6684 155.128C78.6835 155.444 78.7357 155.758 78.8238 156.063C78.8627 156.205 78.8756 156.34 78.9209 156.482L79.0958 156.921L79.2641 157.359C79.3288 157.501 79.4195 157.636 79.4907 157.772C80.124 158.869 80.9332 159.856 81.8863 160.694C82.7939 161.491 83.745 162.238 84.7352 162.932C86.6063 164.221 88.2444 165.298 89.3322 166.124C89.8825 166.53 90.2969 166.872 90.5753 167.111L90.9962 167.478L90.4911 167.233C90.1739 167.066 89.6818 166.853 89.0732 166.588L86.8394 165.595C85.9783 165.208 85.0006 164.77 83.9582 164.221C82.8049 163.644 81.7025 162.971 80.6626 162.209C79.4217 161.342 78.3582 160.248 77.5289 158.984C77.4188 158.81 77.3023 158.643 77.2052 158.462L76.9397 157.894L76.6742 157.314C76.5965 157.114 76.5447 156.882 76.48 156.669C76.3467 156.249 76.2535 155.817 76.2016 155.379L76.1433 154.818V154.534V154.109C76.1951 152.341 76.7253 150.621 77.6778 149.129C78.5645 147.636 79.7965 146.376 81.2712 145.453C81.6494 145.22 82.0482 145.021 82.4626 144.86C82.6741 144.771 82.8902 144.694 83.11 144.628C83.3496 144.563 83.4273 144.544 83.7575 144.479C84.6105 144.313 85.4843 144.28 86.3474 144.383C87.8383 144.572 89.287 145.008 90.6336 145.673C91.8832 146.247 92.9645 146.853 93.9939 147.401C96.0464 148.491 97.7298 149.452 98.9017 150.142C100.074 150.832 100.65 151.258 100.65 151.258Z" fill="#F2AE89"/>
<path d="M87.2215 192.535C86.8978 192.445 86.574 192.335 86.2697 192.212L70.8341 185.531C67.9655 184.36 65.6717 182.116 64.4448 179.28C63.2179 176.444 63.1557 173.242 64.2714 170.361C65.3872 167.48 67.5921 165.149 70.4131 163.869C73.2341 162.588 76.4465 162.46 79.3613 163.512L94.8292 170.168C97.8068 171.173 100.262 173.315 101.654 176.123C103.046 178.931 103.261 182.174 102.252 185.14C101.244 188.107 99.0932 190.552 96.2743 191.939C93.4555 193.325 90.1991 193.54 87.2215 192.535Z" fill="#F7CBA2"/>
<path d="M88.6783 189.31C91.2034 190.6 98.6557 175.766 96.1306 174.521L86.4898 171.187C84.1784 170.387 81.1547 172.251 79.5231 175.482C77.898 178.707 78.2282 182.241 80.2288 183.615L88.6783 189.31Z" fill="#FFDDBC"/>
<path d="M95.8716 174.56C95.8716 174.56 95.3018 174.437 94.3241 174.134C93.3465 173.831 91.9674 173.36 90.3422 172.896C89.494 172.649 88.6282 172.466 87.7524 172.348C87.3033 172.296 86.8511 172.277 86.3992 172.29C86.182 172.295 85.9656 172.317 85.7517 172.354C85.6611 172.354 85.4992 172.354 85.4668 172.399L85.0719 172.496C84.1927 172.757 83.3845 173.213 82.7086 173.831C81.9859 174.48 81.3985 175.265 80.9799 176.14C80.8726 176.35 80.7775 176.565 80.695 176.785V176.869V176.908C80.695 176.946 80.695 176.856 80.695 176.875L80.6303 177.082L80.5072 177.488C80.3953 177.93 80.3237 178.381 80.2936 178.836C80.2798 179.284 80.3189 179.732 80.4101 180.171C80.5082 180.618 80.6604 181.051 80.8633 181.461C81.2833 182.272 81.8321 183.011 82.4885 183.647C82.8057 183.963 83.1877 184.292 83.5309 184.615C83.8741 184.937 84.1784 185.26 84.515 185.576C84.8517 185.892 85.1237 186.221 85.3956 186.498C85.6675 186.775 85.8812 187.085 86.1143 187.317C86.5869 187.794 87.0531 188.207 87.4092 188.556C87.8137 188.912 88.1863 189.302 88.5229 189.723L88.1603 189.517C87.9272 189.381 87.5646 189.207 87.1179 188.981C86.5548 188.714 86.0078 188.415 85.4798 188.085C84.8323 187.659 84.2496 187.188 83.5374 186.705L82.4302 185.963C82.0417 185.705 81.6597 185.46 81.213 185.131C80.2637 184.451 79.4511 183.6 78.8174 182.622C78.1069 181.493 77.7299 180.188 77.7296 178.855C77.734 178.17 77.821 177.488 77.9886 176.824L78.1116 176.411L78.1699 176.205L78.267 175.927C78.3771 175.611 78.513 175.282 78.649 175.011C79.2267 173.815 80.0598 172.758 81.09 171.916C82.1058 171.07 83.3233 170.499 84.6251 170.258L85.0265 170.2C85.1938 170.175 85.3625 170.16 85.5316 170.155C85.8376 170.132 86.1449 170.132 86.451 170.155C87.0173 170.2 87.5785 170.295 88.1279 170.439C89.0886 170.701 90.0195 171.062 90.9055 171.516C92.1693 172.156 93.3912 172.876 94.5637 173.67L95.8716 174.56Z" fill="#F2AE89"/>
<path d="M194.707 78.378C194.707 78.378 194.979 78.6231 195.471 79.1132C195.682 79.3387 195.927 79.5302 196.196 79.6808L197.135 80.3645C197.98 80.9697 198.862 81.5212 199.777 82.0155C200.282 82.3058 200.832 82.5895 201.415 82.8669C201.998 83.1442 202.652 83.3957 203.357 83.686C204.063 83.9762 204.782 84.2535 205.623 84.5438L206.918 84.9759L208.356 85.4789C210.382 86.1884 212.888 86.8978 215.996 88.2587C217.789 89.0276 219.52 89.931 221.176 90.961C221.402 91.0965 221.648 91.2642 221.888 91.419L222.244 91.6576L222.419 91.7737L222.509 91.8317L222.827 92.0768L223.247 92.3799C223.571 92.6379 223.947 92.9475 224.283 93.2377L224.717 93.6247L225.106 93.9859C225.371 94.2245 225.611 94.4632 225.857 94.7082C226.349 95.1984 226.795 95.7015 227.229 96.1981C228.819 98.0581 230.202 100.084 231.354 102.241C232.348 104.082 233.213 105.989 233.944 107.949C235.172 111.324 236.122 114.792 236.786 118.32C237.11 119.945 237.375 121.545 237.615 123.067C237.854 124.589 238.016 126.118 238.171 127.582C238.476 130.503 238.735 133.264 238.858 135.85C238.981 138.436 239.091 140.842 239.156 143.041C239.22 145.24 239.22 147.22 239.246 148.994C239.272 150.768 239.246 152.258 239.246 153.509C239.194 155.985 239.169 157.378 239.169 157.378C239.101 160.815 237.759 164.104 235.4 166.612C233.042 169.121 229.834 170.67 226.397 170.962C222.959 171.254 219.535 170.267 216.784 168.192C214.034 166.117 212.152 163.101 211.502 159.726L211.276 158.539L211.075 157.501C210.965 156.824 210.79 155.837 210.577 154.573C210.363 153.309 210.162 151.812 209.929 150.058C209.696 148.304 209.45 146.421 209.172 144.318C208.893 142.216 208.673 140.01 208.362 137.707C208.215 136.564 208.062 135.394 207.902 134.199C207.747 133.038 207.579 131.851 207.417 130.639C207.255 129.426 207.061 128.272 206.86 127.111C206.659 125.95 206.465 124.802 206.213 123.699C205.96 122.596 205.759 121.545 205.5 120.564C205.241 119.584 204.963 118.688 204.704 117.927C204.412 117.109 204.075 116.308 203.694 115.527L203.979 115.766C204.092 115.87 204.213 115.965 204.341 116.05L203.94 115.721L204.225 115.94L204.186 115.901L204.089 115.805C203.569 115.388 203.022 115.007 202.451 114.663C200.903 113.689 198.566 112.464 196.047 110.974C193.416 109.46 190.913 107.734 188.563 105.814C187.384 104.86 186.297 103.802 185.287 102.802C184.311 101.804 183.388 100.756 182.522 99.6615C181.172 97.933 179.98 96.0875 178.961 94.1471C178.559 93.3409 178.229 92.6766 177.892 91.9414C177.634 91.4175 177.417 90.874 177.245 90.3161C177.148 89.9807 177.077 89.7227 177.038 89.5422L176.973 89.2713L176.882 88.923C176.327 86.6753 176.512 84.3092 177.41 82.1742C178.308 80.0391 179.871 78.2484 181.869 77.0664C183.867 75.8843 186.194 75.3737 188.506 75.6099C190.817 75.8461 192.992 76.8165 194.707 78.378Z" fill="#F7CBA2"/>
<path d="M201.933 87.2203L203.364 83.6731C189.767 74.8372 187.002 73.0636 186.84 74.3406L185.766 80.0355C185.643 80.7433 185.749 81.4715 186.067 82.1158C186.386 82.76 186.902 83.2871 187.54 83.6215L196.17 88.2909C197.102 88.8194 198.191 89.0018 199.245 88.8058C200.299 88.6098 201.249 88.048 201.926 87.2203H201.933Z" fill="#FFDDBC"/>
<path d="M187.002 83.1377C187.002 83.1377 188.187 83.6924 189.981 84.4277L193.056 85.7176L194.791 86.4851C195.381 86.743 195.976 87.0397 196.539 87.2719C197.06 87.4998 197.609 87.656 198.171 87.7363C198.412 87.7652 198.655 87.7652 198.896 87.7363C199.082 87.7177 199.263 87.6629 199.427 87.575C200.174 87.1194 200.788 86.4767 201.208 85.7111C201.573 85.112 201.889 84.4844 202.153 83.8343C202.341 83.357 202.431 83.0862 202.431 83.0862L205.403 84.3761C205.403 84.3761 205.248 84.705 204.931 85.2467C204.494 86.0078 203.994 86.7306 203.435 87.4073C203.043 87.8755 202.61 88.3073 202.14 88.6973C201.571 89.1849 200.911 89.5553 200.198 89.7872C199.778 89.9123 199.34 89.9646 198.903 89.942C198.508 89.9211 198.117 89.8562 197.737 89.7485C197.053 89.5336 196.4 89.23 195.795 88.8456C195.199 88.4844 194.668 88.1103 194.144 87.7621L192.558 86.7624L189.741 84.963C188.077 83.873 187.002 83.1377 187.002 83.1377Z" fill="#F2AE89"/>
<path d="M207.857 134.244C208.013 135.444 208.166 136.613 208.317 137.752C208.628 140.055 208.874 142.267 209.126 144.363C209.379 146.459 209.657 148.394 209.884 150.103C210.11 151.812 210.369 153.328 210.531 154.618C210.687 155.515 210.81 156.263 210.913 156.862C211.276 153.992 211.613 151.122 211.897 148.239C212.694 140.274 213.652 120.906 213.49 120.036C212.616 115.321 211.328 112.432 207.605 109.278C200.67 103.402 192.214 99.5196 185.746 93.0185C181.861 89.1487 177.75 83.1571 179.207 79.3777C177.193 81.9188 175.847 84.7759 176.675 88.1684L176.96 89.3164C176.96 89.3164 176.96 89.4067 177.025 89.5873C177.09 89.7679 177.135 90.0259 177.232 90.3612C177.405 90.9192 177.621 91.4626 177.88 91.9865C178.216 92.7218 178.527 93.3861 178.948 94.1923C179.974 96.1175 181.17 97.9478 182.522 99.6615C183.364 100.734 184.261 101.763 185.209 102.744C186.219 103.744 187.307 104.802 188.485 105.756C190.835 107.676 193.338 109.402 195.97 110.916C198.462 112.406 200.826 113.631 202.373 114.605C202.944 114.949 203.491 115.33 204.011 115.747L204.108 115.843L204.147 115.882L203.862 115.663L204.264 115.992C204.136 115.907 204.015 115.812 203.901 115.708L203.616 115.469C203.997 116.25 204.334 117.051 204.626 117.869C204.885 118.63 205.164 119.539 205.423 120.506C205.682 121.474 205.895 122.551 206.135 123.641C206.375 124.731 206.569 125.885 206.782 127.053C206.996 128.22 207.171 129.394 207.339 130.581C207.508 131.767 207.702 133.083 207.857 134.244Z" fill="#F2AE89"/>
</svg>
